<svg width="96" height="44" viewBox="0 0 96 44" fill="none" xmlns="http://www.w3.org/2000/svg">
<path d="M0 22C0 9.84974 9.84974 0 22 0H74C86.1503 0 96 9.84974 96 22C96 34.1503 86.1503 44 74 44H22C9.84974 44 0 34.1503 0 22Z" fill="#328800"/>
<path d="M34.3212 22.23L35.7012 22.485C36.8562 22.695 37.7112 23.04 37.7112 23.97C37.7112 25.14 36.4962 25.485 35.5362 25.485C34.2462 25.485 33.1362 25.005 32.8962 23.415H30.8262C31.0212 25.755 32.7912 27.195 35.4612 27.195C37.6512 27.195 39.8712 26.1 39.8712 23.865C39.8712 21.615 37.9212 20.91 36.1512 20.595L34.7262 20.34C33.8562 20.175 33.2112 19.755 33.2112 18.99C33.2112 18.015 34.3212 17.64 35.3112 17.64C36.3312 17.64 37.4412 18.06 37.6062 19.335H39.6762C39.5712 17.25 37.6512 15.93 35.4012 15.93C33.3912 15.93 31.0662 16.89 31.0662 19.08C31.0662 20.97 32.5512 21.885 34.3212 22.23ZM41.5832 16.74V18.93H40.4432V20.355H41.5832V24.825C41.5832 26.43 41.9432 27 43.7882 27H45.3032V25.515H44.6732C43.9382 25.515 43.6532 25.35 43.6532 24.525V20.355H45.3332V18.93H43.6532V16.74H41.5832ZM49.2395 27.195C50.4545 27.195 51.3095 26.835 51.8795 25.995C51.9095 26.385 51.9545 26.745 52.0145 27H53.9195C53.7695 26.325 53.6795 25.605 53.6795 24.33C53.6795 23.595 53.7095 22.53 53.7095 22.275C53.7095 19.545 52.1495 18.72 50.2295 18.72C48.1595 18.72 46.8395 19.89 46.6895 21.48H48.6245C48.6695 20.595 49.3295 20.175 50.1245 20.175C50.9645 20.175 51.6395 20.61 51.6395 21.855V21.99C48.4745 22.35 46.3295 22.92 46.3295 24.825C46.3295 26.295 47.6945 27.195 49.2395 27.195ZM51.6995 23.31V23.91C51.6995 25.08 51.1445 25.785 49.8545 25.785C48.9245 25.785 48.4595 25.305 48.4595 24.72C48.4595 23.82 49.3895 23.55 51.6995 23.31ZM60.0539 20.925V18.975C59.9189 18.96 59.7389 18.945 59.6039 18.945C58.6739 18.945 57.9389 19.35 57.4739 20.34V18.93H55.4339V27H57.5039V22.77C57.5039 21.255 58.1789 20.88 59.1989 20.88C59.4989 20.88 59.7539 20.895 60.0539 20.925ZM61.4025 16.74V18.93H60.2625V20.355H61.4025V24.825C61.4025 26.43 61.7625 27 63.6075 27H65.1225V25.515H64.4925C63.7575 25.515 63.4725 25.35 63.4725 24.525V20.355H65.1525V18.93H63.4725V16.74H61.4025Z" fill="white"/>
</svg>
